<svg height='300px' width='300px'  fill="#000000" xmlns="http://www.w3.org/2000/svg" xmlns:xlink="http://www.w3.org/1999/xlink" version="1.1" x="0px" y="0px" viewBox="0 0 66 66" enable-background="new 0 0 66 66" xml:space="preserve"><g><path d="M48.5298,23.3662c0.0176-0.0118,0.0311-0.0208,0.05-0.0334c0.004-0.0027,0.0096-0.0064,0.0127-0.0085   C48.5781,23.334,48.5566,23.3484,48.5298,23.3662z"></path><path d="M64.9733,33.3616c-0.0207,0.0089-0.0531,0.0228-0.1092,0.0469c0.0022-0.001,0.0043-0.0018,0.0066-0.0028   c-0.0051,0.0022-0.0114,0.0049-0.0158,0.0068c0.0034-0.0015,0.0059-0.0026,0.0092-0.004c-0.0306,0.0131-0.0557,0.024-0.0594,0.0255   c-0.649,0.2791-3.2112,1.3804-11.9248,5.126c-0.0102-0.0068-0.0099-0.0066-0.0201-0.0134   c0.0404-2.2062,1.7047-4.9533,2.9803-6.7565c3.0139-0.4604,6.165-1.3663,8.95-2.46c-0.1356-1.1885-0.4086-2.6599-0.4302-2.76   h-0.0098c-1.76,0.73-3.55,1.33-5.4001,1.8c0.1779-1.2797,0.8729-1.6979,3.3801-3.91l-1.6201-1.85   c0.8272,0.036,1.6136,0.0275,2.53-0.1101c-0.2919-0.8177-0.5632-1.5316-1.04-2.6199c-0.4302-0.0061-1.4077,0.16-3.1299-0.27   c0.1005-0.0676,2.4067-1.6187,2.26-1.52c-0.4379-0.8027-1.0533-1.8624-1.3701-2.3601c-7.375,4.9271-10.307,6.8859-11.3535,7.5851   c-0.0026,0.0017-0.0063,0.0042-0.0139,0.0093c0.003-0.002,0.0038-0.0024,0.0061-0.004c-0.0056,0.0037-0.0133,0.0089-0.0188,0.0125   c-0.0488,0.0326-0.1689,0.1129-0.39,0.2606c-0.0271,0.0181-0.0493,0.033-0.0644,0.043c0.0018-0.0012,0.0045-0.0029,0.0063-0.0042   c-0.0041,0.0027-0.0071,0.0047-0.0113,0.0075c-0.0248,0.0166-0.0368,0.0247-0.0304,0.0203   c-0.8091-2.2734-0.8046-4.7518-0.1902-6.98c6.1079,0.4702,9.0836-2.7521,10.27-3.47c-0.6465-0.8253-1.0664-1.285-1.7798-2.0699   c-0.1086,0.0545-2.7115,2.9256-7.4702,2.8699c1.7178-3.4869,4.3415-5.6268,4.4302-5.73c-0.3173-0.2667-1.3903-1.1022-2.2202-1.6799   c-0.0674,0.1002-9.5491,8.3954-5.3699,18.61c-7.9042,4.8593-9.1102,7.049-10.26,5.62c-0.3959-0.4892-0.3225-1.1433,0.1099-1.54   c0.4502-0.4099,0.9502-0.9199,1.4802-1.5601c6.0517,2.4016,9.5184-7.3203,6.1854-7.4917c-0.7109-0.0366-1.3415,0.479-1.4185,1.1866   c-0.2172,1.9954-1.0106,3.9586-3.0069,3.9152c2.5711-4.0321,5.3326-10.7769,6.4617-21.907   c-0.0006-0.0011-0.0011-0.0019-0.0018-0.003c-0.8701-0.36-1.7499-0.6801-2.6501-0.97c-0.0863,0.533-0.6048,8.7967-3.5,16.17   c-0.8799-1.05-1.6099-2.28-2.1699-3.6501c4.4887-1.9714,5.1818-7.8641,3.5601-12.47L37.99,3.42   c1.0591,3.0175,1.0201,7.3404-1.8301,8.9301C35.3243,8.7964,35.774,4.8082,36.73,1.22c0.01-0.0099,0.01-0.0099,0.01-0.0199   C35.8301,1.0901,34.9099,1.02,33.98,1c0,0.01,0,0.01,0,0.02c-0.5601,2.17-0.8701,4.2-0.95,6.13   C32.1843,5.9844,31.54,4.4591,31.54,2.921L31.54,1.01c-0.9302,0.04-1.8601,0.1301-2.77,0.25c0,0.01,0,0.01,0,0.02   c-0.0901,0.96-0.05,1.9399,0.1099,2.88c0.5073,2.9277,2.3312,5.629,4.3101,6.99c0.4468,3.6668,2.0374,7.4775,4.77,10.2101   c-1.6099,3.23-3.25,5.0699-4.3501,6.0599l-7.23-25.73V1.67c-0.8899,0.1801-1.77,0.41-2.6299,0.67v0.02L26.8,13.22   c-3.3419-2.0765-4.9038-6.0699-5.6935-9.9565c-0.0027-0.0015-0.0037-0.002-0.0064-0.0034c-0.6702,0.27-1.3301,0.5601-1.98,0.89   c-0.1902,0.08-0.3801,0.17-0.5601,0.26c0,0.01,0,0.01,0.01,0.02c1.2046,5.3951,3.9167,10.5327,9.1899,12.2001l1.8101,6.46   c-4.2387-1.1354-3.1176-5.4516-5.394-5.1396c-0.8074,0.1106-1.3651,0.9081-1.1371,1.6905c1.004,3.4454,3.6852,6.0765,7.3312,6.3091   l0.0098,0.0199c0.8584,3.3263,1.178,3.5461,0.9602,4.3101c-0.3162,1.008-1.5018,1.3625-2.3,0.8101l-8.8-5.88   c2.6877-6.5693-0.1196-13.6184-5.3601-18.6l-0.0098-0.01c-0.5601,0.3899-1.1001,0.79-1.6301,1.22c-0.2,0.14-0.3999,0.3-0.5901,0.46   l0.01,0.01c1.8381,1.6217,3.3729,3.5944,4.4202,5.72c-2.7212,0.0319-5.3577-0.8951-7.46-2.86l-0.0103-0.0099   c-0.0999,0.1099-0.21,0.22-0.2998,0.3398c-0.52,0.55-1.01,1.1301-1.48,1.7301l0.01,0.0099c2.777,2.5386,6.3502,3.761,10.26,3.4601   c0.6138,2.226,0.6196,4.7045-0.1902,6.98L6.05,15.74l-0.01-0.01c-0.1401,0.2201-0.28,0.4501-0.4102,0.6801   c-0.2798,0.4301-0.5398,0.88-0.77,1.34C4.79,17.8601,4.73,17.98,4.6699,18.0901l0.01,0.01l2.25,1.51   c-1.7144,0.4281-2.9579,0.2675-3.1299,0.27C3.3384,20.9338,3.0602,21.6592,2.76,22.5c0.9173,0.1378,1.7042,0.1461,2.53,0.1101   l-1.6201,1.85c1.2308,1.3121,3.1423,2.1989,3.3801,3.91C5.2,27.9,3.4099,27.3001,1.6499,26.5701H1.6401   c-0.0392,0.1812-0.2979,1.5999-0.4302,2.76c2.784,1.0933,5.9352,1.9995,8.95,2.46c1.2661,1.7899,2.9399,4.5549,2.9803,6.7565   c-0.0102,0.0068-0.0099,0.0067-0.0201,0.0134L1,33.3501c0.0366,2.1605,0.1716,2.2741,0.0908,2.8515   c0.0367,0.0696,0.0626,0.1188,0.0992,0.1885L5.51,38.25C4.5214,39.1973,3.0344,39.5417,1.7,39.66   c0.1815,0.8865,0.4527,1.8672,0.6902,2.67c2.2365-0.2816,4.4163-1.1225,5.75-2.95c0.1,0.0432,6.4069,2.7648,6.5698,2.83   C12.6961,45.8799,7.8985,46.3323,3.72,45.9c0.4976,1.1087,0.819,1.7682,1.4299,2.85c0.4001,0.02,0.8,0.03,1.2002,0.03   c4.4175,0,8.8032-1.5229,10.8599-5.45c3.8685,1.7853,7.532,3.9671,9.8101,7.48c-0.553,8.3429-0.7729,11.6605-0.8514,12.845   c-0.0002,0.0028-0.0005,0.0087-0.0013,0.0195c0.0003-0.0054,0.0004-0.006,0.0007-0.0099c-0.0009,0.0138-0.002,0.0283-0.0028,0.0416   c-0.0004,0.0066-0.0007,0.0118-0.0013,0.0198c-0.0024,0.0365-0.0044,0.0665-0.0065,0.0985   c0.0015-0.0237,0.003-0.0449,0.0043-0.0653c-0.0054,0.0817-0.0143,0.2166-0.028,0.423c0.0016-0.0234,0.0034-0.0515,0.0056-0.0843   c-0.0077,0.1158-0.0103,0.155-0.0094,0.142c0.25,0.05,0.5103,0.1001,0.77,0.1501V64.42C28.8701,64.8,30.9099,65,33,65   c1.8999,0,3.75-0.1599,5.5601-0.48V64.5c0.4399-0.08,0.8799-0.1699,1.3101-0.26c-0.0011-0.0164-0.0018-0.027-0.0028-0.0425   c-0.0001-0.0016-0.0002-0.0038-0.0004-0.0054c-0.001-0.0153-0.002-0.0307-0.0034-0.0508c0.0006,0.009,0.0013,0.0206,0.0018,0.0283   c-0.001-0.0153-0.002-0.0287-0.0029-0.0432c0.0004,0.0048,0.0007,0.0103,0.001,0.0149c-0.002-0.0311-0.0048-0.0712-0.008-0.1204   c0.0004,0.007,0.0009,0.0138,0.0013,0.0206c-0.0024-0.0369-0.0045-0.0685-0.0066-0.0994c0.002,0.0302,0.0036,0.0538,0.0052,0.0789   c-0.0032-0.0483-0.0065-0.098-0.0097-0.1465c0.0002,0.003,0.0004,0.007,0.0006,0.0099c-0.0002-0.0042-0.0006-0.0094-0.0009-0.0135   c0.0001,0.0012,0.0002,0.0024,0.0002,0.0036c-0.0018-0.0276-0.004-0.0599-0.006-0.0912c-0.0024-0.0352-0.0042-0.0638-0.0056-0.0837   c-0.0761-1.1478-0.2948-4.4475-0.8543-12.8892c2.2911-3.533,5.9641-5.7051,9.8101-7.48c2.261,4.3173,7.1868,5.6638,12.0601,5.4199   c0.6105-1.0811,0.9321-1.7408,1.4299-2.85c-4.1824,0.4327-8.9771-0.0219-10.99-3.6899c0.1645-0.0658,6.4692-2.7866,6.5698-2.83   c1.334,1.8279,3.5143,2.6685,5.75,2.95c0.2527-0.8543,0.5107-1.7937,0.6902-2.67c-1.3397-0.1188-2.8199-0.4612-3.8101-1.41   l4.3201-1.8599c0.0366-0.0696,0.0625-0.1188,0.0992-0.1885C64.8286,35.6257,64.9633,35.51,65,33.3501   C64.9893,33.3547,64.9817,33.358,64.9733,33.3616z M9.79,28.97c0.1412-3.8073-3.1697-5.1669-4.1301-6.3899   c1.3365-0.1056,2.8383-0.4926,4.03-1.13H9.7L20.96,28.97C19.0724,30.2283,12.1633,29.3923,9.79,28.97z M27.29,46.78   c-1.0027-1.0398-1.8264-1.706-2.76-2.3999c1.5878-3.6949,0.7309-7.7455-1.8484-10.4783c-1.2457-1.3198-3.249,0.4995-1.973,1.8732   c1.6701,1.7978,2.4358,4.4423,1.4814,7.0751c-2.0363-1.2033-4.2397-2.2051-6.4199-3.14c0.4249-2.7903-0.7268-5.0823-2.1101-7.5   c1.5229,0,6.9058,0.8704,9.74-1.61l4.76,3.1799L27.29,46.78z M56.3,21.4501h0.01c1.1917,0.6375,2.6934,1.0244,4.03,1.13   c-0.9577,1.2195-4.2712,2.585-4.1301,6.3899c-2.3591,0.4107-9.2792,1.2605-11.1699,0L56.3,21.4501z M50.23,39.7101   c-2.1799,0.9347-4.3832,1.9365-6.4199,3.14c-0.9381-2.5876-0.2125-5.2516,1.4813-7.0751c1.2757-1.3732-0.7269-3.1931-1.973-1.8733   c-2.5857,2.739-3.4386,6.8157-1.8484,10.4784c-0.9365,0.696-1.7557,1.3584-2.76,2.3999l-0.8699-13l4.76-3.1799   c2.3104,2.0219,6.2043,1.8949,9.72,1.61c0.01,0,0.01,0,0.02,0C50.9478,34.6435,49.8062,36.9277,50.23,39.7101z"></path><path d="M64.9634,33.3658c0.0034-0.0015,0.0068-0.0029,0.0098-0.0042c0.0018-0.0008,0.0081-0.0035,0.0096-0.0042   C64.9774,33.3598,64.9705,33.3628,64.9634,33.3658z"></path></g></svg>